<svg id="Capa_1" enable-background="new 0 0 512 512" height="512" viewBox="0 0 512 512" width="512" xmlns="http://www.w3.org/2000/svg"><g><g><path d="m275.453 512h-38.906c-140.889 0-236.547-82.603-236.547-205.562 0-78.794 32.699-117.935 72.836-167.505 53.955-66.626 48.741-66.53 78.164-108.471v88.652c44.707-15.483 76.406-30.791 90.762-73.857l14.238-45.257 14.238 45.257c14.443 43.315 46.436 58.55 90.762 73.857v-88.652c25.009 35.685 27.106 45.464 78.896 109.644 39.727 49.204 72.104 88.066 72.104 166.332 0 122.959-95.658 205.562-236.547 205.562z" fill="#f36a3d"/></g><path d="m275.453 512c140.889 0 236.547-82.603 236.547-205.562 0-78.267-32.377-117.129-72.104-166.333-51.789-64.18-53.887-73.958-78.896-109.643v88.652c-44.326-15.308-76.318-30.542-90.762-73.857l-14.238-45.257v512z" fill="#ec4c36"/><g><path d="m361 452h-210v-270h210z" fill="#f9f4f3"/></g><path d="m256 182h105v270h-105z" fill="#f0e6e1"/><g><path d="m211 242h90v30h-90z" fill="#e6d5c3"/></g><g><path d="m211 302h90v30h-90z" fill="#e6d5c3"/></g><g><path d="m211 362h90v30h-90z" fill="#e6d5c3"/></g><g fill="#ccb8a3"><path d="m256 362h45v30h-45z"/><path d="m256 302h45v30h-45z"/><path d="m256 242h45v30h-45z"/></g></g></svg>